<svg width="35" height="35" viewBox="0 0 35 35" fill="none" xmlns="http://www.w3.org/2000/svg">
<path d="M27.3437 20.7812H24.3789C23.9246 20.7816 23.4845 20.94 23.1341 21.2293C22.7838 21.5186 22.545 21.9208 22.4588 22.367C22.3726 22.8131 22.4442 23.2753 22.6616 23.6743C22.8789 24.0734 23.2282 24.3844 23.6498 24.554L26.6598 25.7585C27.0813 25.9281 27.4307 26.2391 27.648 26.6382C27.8653 27.0372 27.937 27.4994 27.8508 27.9455C27.7645 28.3917 27.5258 28.7939 27.1754 29.0832C26.8251 29.3725 26.385 29.5309 25.9306 29.5313H22.9687" stroke="#FF6B00" stroke-width="1.75" stroke-linecap="round" stroke-linejoin="round"/>
<path d="M25.1562 20.7813V19.6875" stroke="#FF6B00" stroke-width="1.75" stroke-linecap="round" stroke-linejoin="round"/>
<path d="M25.1562 30.625V29.5312" stroke="#FF6B00" stroke-width="1.75" stroke-linecap="round" stroke-linejoin="round"/>
<path d="M16.4062 25.1563C16.4062 27.4769 17.3281 29.7025 18.9691 31.3434C20.61 32.9844 22.8356 33.9063 25.1563 33.9063C27.4769 33.9063 29.7025 32.9844 31.3434 31.3434C32.9844 29.7025 33.9063 27.4769 33.9063 25.1563C33.9063 22.8356 32.9844 20.61 31.3434 18.9691C29.7025 17.3281 27.4769 16.4062 25.1563 16.4062C22.8356 16.4062 20.61 17.3281 18.9691 18.9691C17.3281 20.61 16.4062 22.8356 16.4062 25.1563Z" stroke="#FF6B00" stroke-width="1.75" stroke-linecap="round" stroke-linejoin="round"/>
<path d="M5.46875 9.84375V22.9688H12.0313" stroke="#FF6B00" stroke-width="1.75" stroke-linecap="round" stroke-linejoin="round"/>
<path d="M5.46875 18.5937L9.39021 14.6722C9.59336 14.4689 9.83456 14.3077 10.1001 14.1977C10.3655 14.0876 10.6501 14.031 10.9375 14.031C11.2249 14.031 11.5095 14.0876 11.7749 14.1977C12.0404 14.3077 12.2816 14.4689 12.4848 14.6722L13.3321 15.5195C13.5672 15.7543 13.8526 15.9325 14.1668 16.0405C14.481 16.1485 14.8157 16.1835 15.1455 16.1429C15.4752 16.1023 15.7914 15.9871 16.07 15.8061C16.3486 15.625 16.5823 15.3829 16.7533 15.098L17.2754 14.223" stroke="#FF6B00" stroke-width="1.75" stroke-linecap="round" stroke-linejoin="round"/>
<path d="M10.9375 29.5313H3.28125C2.70109 29.5313 2.14469 29.3008 1.73445 28.8905C1.32422 28.4803 1.09375 27.9239 1.09375 27.3438V3.28125C1.09375 2.70109 1.32422 2.14469 1.73445 1.73445C2.14469 1.32422 2.70109 1.09375 3.28125 1.09375H18.7819C19.3616 1.09387 19.9176 1.32414 20.3277 1.73396L24.516 5.92229C24.9259 6.33237 25.1561 6.88837 25.1563 7.46812V10.9375" stroke="#FF6B00" stroke-width="1.75" stroke-linecap="round" stroke-linejoin="round"/>
</svg>
