<svg width="29" height="35" viewBox="0 0 29 35" fill="none" xmlns="http://www.w3.org/2000/svg">
<path d="M1.62427 18.6668H5.2701C5.36978 18.6629 5.46915 18.6803 5.56162 18.7177C5.65409 18.7551 5.73756 18.8118 5.80649 18.8839C5.87543 18.956 5.92826 19.0419 5.9615 19.136C5.99473 19.23 6.0076 19.3301 5.99927 19.4295V33.151C6.0076 33.2504 5.99473 33.3504 5.9615 33.4445C5.92826 33.5385 5.87543 33.6245 5.80649 33.6966C5.73756 33.7687 5.65409 33.8253 5.56162 33.8627C5.46915 33.9002 5.36978 33.9175 5.2701 33.9137H1.62427" stroke="#FF6B00" stroke-width="1.75" stroke-linecap="round" stroke-linejoin="round"/>
<path d="M12.0528 15.4351L9.24989 18.9249C9.0658 19.1543 8.83432 19.3412 8.5713 19.4728C8.30827 19.6045 8.0199 19.6777 7.72593 19.6876H5.99927" stroke="#FF6B00" stroke-width="1.75" stroke-linecap="round" stroke-linejoin="round"/>
<path d="M5.99927 29.9454C9.12593 32.3152 11.9784 33.9063 13.8203 33.9063H22.9684C24.0768 33.9063 24.7739 33.8275 25.2551 32.3823C25.9899 28.6931 26.4993 24.9626 26.7805 21.2115C26.7805 20.4502 26.0178 19.6875 24.4939 19.6875H15.843" stroke="#FF6B00" stroke-width="1.75" stroke-linecap="round" stroke-linejoin="round"/>
<path d="M12.3912 17.799L10.1337 2.00229C10.1176 1.88944 10.126 1.77446 10.1581 1.66511C10.1903 1.55577 10.2456 1.45461 10.3203 1.36847C10.395 1.28234 10.4872 1.21324 10.5909 1.16584C10.6946 1.11845 10.8072 1.09386 10.9212 1.09375H21.9374" stroke="#FF6B00" stroke-width="1.75" stroke-linecap="round" stroke-linejoin="round"/>
<path d="M17.1817 19.6876L15.8459 6.33068C15.835 6.22864 15.8458 6.12544 15.8775 6.02785C15.9093 5.93026 15.9613 5.84047 16.0301 5.76435C16.0989 5.68823 16.183 5.62749 16.277 5.58611C16.3709 5.54473 16.4725 5.52364 16.5751 5.52422H26.6376C26.7436 5.52296 26.8485 5.54481 26.9452 5.58826C27.0419 5.63171 27.1279 5.69572 27.1973 5.77582C27.2667 5.85592 27.3179 5.95019 27.3471 6.05206C27.3764 6.15393 27.3831 6.26096 27.3667 6.36568L25.3542 19.7823" stroke="#FF6B00" stroke-width="1.75" stroke-linecap="round" stroke-linejoin="round"/>
<path d="M21.354 12.5723C21.4616 12.5734 21.5666 12.6063 21.6556 12.6669C21.7446 12.7274 21.8138 12.8129 21.8545 12.9125C21.8951 13.0122 21.9055 13.1217 21.8842 13.2272C21.8629 13.3328 21.8109 13.4297 21.7348 13.5058C21.6587 13.5819 21.5618 13.6339 21.4562 13.6552C21.3507 13.6765 21.2412 13.6661 21.1415 13.6255C21.0419 13.5848 20.9564 13.5156 20.8959 13.4266C20.8353 13.3376 20.8024 13.2326 20.8013 13.125C20.8013 12.9799 20.8589 12.8408 20.9614 12.7383C21.064 12.6357 21.2031 12.5781 21.3481 12.5781" stroke="#FF6B00" stroke-width="1.75" stroke-linecap="round" stroke-linejoin="round"/>
</svg>
