<svg width="280" height="38" viewBox="0 0 280 38" fill="none" xmlns="http://www.w3.org/2000/svg">
<g clip-path="url(#clip0_4053_23)">
<path d="M78.44 24.5766H79.592C80.976 31.2282 84.176 34.6302 89.152 34.6302C93.152 34.6302 96.208 31.9824 96.208 28.3718C96.2 27.4339 95.9746 26.5108 95.5498 25.6753C95.1249 24.8398 94.5122 24.1148 93.76 23.5576C92.56 22.5948 91.744 22.1615 87.52 20.3481C84.176 18.9921 82.184 17.7806 80.976 16.4888C79.5224 14.8548 78.707 12.7489 78.68 10.5593C78.68 5.93767 82.28 2.53564 87.184 2.53564C90.208 2.53564 92.224 3.45034 94.576 5.95372C95.2622 5.15111 95.6964 4.16287 95.824 3.11335H96.832V11.5382H95.824C94.528 6.57956 91.408 3.64291 87.28 3.64291C84.08 3.64291 81.8 5.66487 81.8 8.60152C81.8211 9.41882 82.0273 10.2206 82.4029 10.9462C82.7785 11.6718 83.3137 12.3023 83.968 12.7899C85.024 13.7046 86.368 14.4748 89.44 15.8228C94.384 18.0373 95.632 18.7113 96.88 19.9149C97.7742 20.7601 98.4802 21.7853 98.9517 22.9233C99.4232 24.0613 99.6496 25.2864 99.616 26.5183C99.616 32.0546 95.616 35.8097 89.584 35.8097C87.911 35.8466 86.2511 35.5051 84.7277 34.8106C83.2043 34.1161 81.8564 33.0864 80.784 31.7979C80.1929 32.7567 79.7858 33.8181 79.584 34.9271H78.432L78.44 24.5766Z" fill="#363636"/>
<path d="M144.224 6.86018C145.884 8.42329 147.195 10.3209 148.072 12.4283C148.949 14.5358 149.372 16.8054 149.312 19.0882C149.312 29.0616 142.296 35.8015 131.88 35.8015C121.464 35.8015 114.456 29.0135 114.456 18.7512C114.456 9.31542 121.656 2.52741 131.688 2.52741C136.241 2.47049 140.673 4.00208 144.224 6.86018ZM123 7.53417C121.08 9.84498 119.88 14.3222 119.88 18.9919C119.88 24.5283 121.176 29.0135 123.384 31.3243C125.496 33.4907 128.376 34.5979 132.024 34.5979C139.656 34.5979 143.88 29.1098 143.88 19.1845C143.88 13.568 142.44 9.17099 139.88 6.7639C137.685 4.74311 134.794 3.65575 131.816 3.73096C130.158 3.67407 128.508 3.98551 126.984 4.643C125.46 5.30049 124.099 6.28777 123 7.53417Z" fill="#F36C21"/>
<path d="M190.792 35.2236H163.592V34.1164H164.552C168.344 34.0682 168.68 33.4905 168.632 26.847V11.0965C168.68 4.59738 168.392 4.11596 164.312 4.21224H163.592V3.10498H178.96V4.21224H177.52C173.432 4.11596 173.144 4.59738 173.24 11.0965V27.9462C173.096 33.7232 173.384 34.1084 178.04 34.1565H180.44C185.912 34.3972 188.024 32.5518 189.896 25.7798H191L190.792 35.2236Z" fill="#363636"/>
<path d="M230.928 25.2583L230.256 35.2236H203.752V34.1164H204.432C208.272 34.0682 208.656 33.4905 208.56 26.8951V11.1447C208.656 4.83809 208.32 4.21224 204.816 4.21224H204.432V3.10498H227.28L228.08 11.1286H226.976C225.632 5.25532 223.952 4.00363 217.616 4.1962H213.2V17.6759H216.608C220.608 17.6759 221.456 16.9538 221.408 13.2469V12.8617H222.512V23.9023H221.376V23.469C221.28 19.4572 220.576 18.7511 216.672 18.8474H213.168V26.4137C213.168 33.7794 213.408 34.1645 217.824 34.1164H220.224C225.36 34.309 228.144 31.7093 229.824 25.2904L230.928 25.2583Z" fill="#363636"/>
<path d="M274.912 6.86032C276.572 8.42343 277.883 10.321 278.76 12.4285C279.637 14.5359 280.06 16.8055 280 19.0884C280 29.0618 272.992 35.8016 262.568 35.8016C252.144 35.8016 245.144 29.0136 245.144 18.7514C245.144 9.31556 252.344 2.52755 262.376 2.52755C266.93 2.46796 271.362 3.99985 274.912 6.86032ZM253.688 7.53431C251.768 9.84512 250.568 14.3223 250.568 18.9921C250.568 24.5284 251.864 29.0136 254.072 31.3244C256.184 33.4908 259.064 34.5981 262.712 34.5981C270.352 34.6302 274.576 29.1099 274.576 19.1846C274.576 13.5681 273.136 9.17113 270.576 6.76404C268.381 4.74325 265.49 3.65589 262.512 3.7311C260.853 3.67301 259.201 3.98388 257.675 4.64141C256.15 5.29894 254.788 6.28685 253.688 7.53431Z" fill="#363636"/>
<path d="M57.7761 1.19531H56.6801V37.8072H57.7761V1.19531Z" fill="#C7C7C6"/>
<path d="M18.944 0C15.1972 0 11.5346 1.11433 8.41928 3.20208C5.30396 5.28982 2.87586 8.25722 1.44204 11.729C0.00821171 15.2008 -0.366948 19.0211 0.364011 22.7067C1.09497 26.3924 2.89922 29.7778 5.54858 32.435C8.19795 35.0922 11.5735 36.9018 15.2482 37.6349C18.923 38.368 22.732 37.9918 26.1936 36.5537C29.6551 35.1156 32.6138 32.6804 34.6954 29.5558C36.777 26.4313 37.888 22.7578 37.888 19C37.888 13.9609 35.8921 9.12816 32.3394 5.56497C28.7867 2.00178 23.9683 0 18.944 0ZM18.944 33.6432C16.0541 33.6447 13.2287 32.7866 10.8252 31.1773C8.42173 29.568 6.54815 27.2799 5.44151 24.6024C4.33488 21.925 4.04491 18.9784 4.60831 16.1356C5.17171 13.2928 6.56315 10.6815 8.6066 8.63203C10.65 6.58254 13.2537 5.18699 16.0881 4.62192C18.9225 4.05686 21.8604 4.34768 24.5299 5.45759C27.1995 6.56749 29.4809 8.44662 31.0855 10.8572C32.69 13.2678 33.5456 16.1016 33.544 19C33.5419 22.883 32.003 26.6063 29.2654 29.3519C26.5279 32.0976 22.8155 33.641 18.944 33.6432Z" fill="#F36C21"/>
<path d="M19.6159 25.8042H17.7439C16.4715 25.8042 15.4399 26.8388 15.4399 28.115C15.4399 29.3912 16.4715 30.4258 17.7439 30.4258H19.6159C20.8884 30.4258 21.9199 29.3912 21.9199 28.115C21.9199 26.8388 20.8884 25.8042 19.6159 25.8042Z" fill="#C7C7C6"/>
<path d="M26.584 20.5967H24.712C23.4395 20.5967 22.408 21.6313 22.408 22.9075C22.408 24.1837 23.4395 25.2183 24.712 25.2183H26.584C27.8564 25.2183 28.888 24.1837 28.888 22.9075C28.888 21.6313 27.8564 20.5967 26.584 20.5967Z" fill="#C7C7C6"/>
<path d="M26.584 15.269H24.712C23.4395 15.269 22.408 16.3036 22.408 17.5799C22.408 18.8561 23.4395 19.8907 24.712 19.8907H26.584C27.8564 19.8907 28.888 18.8561 28.888 17.5799C28.888 16.3036 27.8564 15.269 26.584 15.269Z" fill="#C7C7C6"/>
<path d="M26.584 9.93311H24.712C23.4395 9.93311 22.408 10.9677 22.408 12.2439C22.408 13.5201 23.4395 14.5547 24.712 14.5547H26.584C27.8564 14.5547 28.888 13.5201 28.888 12.2439C28.888 10.9677 27.8564 9.93311 26.584 9.93311Z" fill="#C7C7C6"/>
<path d="M19.6159 20.5967H17.7439C16.4715 20.5967 15.4399 21.6313 15.4399 22.9075C15.4399 24.1837 16.4715 25.2183 17.7439 25.2183H19.6159C20.8884 25.2183 21.9199 24.1837 21.9199 22.9075C21.9199 21.6313 20.8884 20.5967 19.6159 20.5967Z" fill="#C7C7C6"/>
<path d="M19.6159 15.269H17.7439C16.4715 15.269 15.4399 16.3036 15.4399 17.5799C15.4399 18.8561 16.4715 19.8907 17.7439 19.8907H19.6159C20.8884 19.8907 21.9199 18.8561 21.9199 17.5799C21.9199 16.3036 20.8884 15.269 19.6159 15.269Z" fill="#C7C7C6"/>
<path d="M19.6159 9.93311H17.7439C16.4715 9.93311 15.4399 10.9677 15.4399 12.2439C15.4399 13.5201 16.4715 14.5547 17.7439 14.5547H19.6159C20.8884 14.5547 21.9199 13.5201 21.9199 12.2439C21.9199 10.9677 20.8884 9.93311 19.6159 9.93311Z" fill="#37396D"/>
<path d="M12.64 20.5967H10.768C9.49553 20.5967 8.46399 21.6313 8.46399 22.9075C8.46399 24.1837 9.49553 25.2183 10.768 25.2183H12.64C13.9125 25.2183 14.944 24.1837 14.944 22.9075C14.944 21.6313 13.9125 20.5967 12.64 20.5967Z" fill="#C7C7C6"/>
<path d="M12.64 15.269H10.768C9.49553 15.269 8.46399 16.3036 8.46399 17.5799C8.46399 18.8561 9.49553 19.8907 10.768 19.8907H12.64C13.9125 19.8907 14.944 18.8561 14.944 17.5799C14.944 16.3036 13.9125 15.269 12.64 15.269Z" fill="#37396D"/>
<path d="M12.64 9.93311H10.768C9.49553 9.93311 8.46399 10.9677 8.46399 12.2439C8.46399 13.5201 9.49553 14.5547 10.768 14.5547H12.64C13.9125 14.5547 14.944 13.5201 14.944 12.2439C14.944 10.9677 13.9125 9.93311 12.64 9.93311Z" fill="#37396D"/>
</g>
<defs>
<clipPath id="clip0_4053_23">
<rect width="280" height="38" fill="white"/>
</clipPath>
</defs>
</svg>
