<svg width="31" height="35" viewBox="0 0 31 35" fill="none" xmlns="http://www.w3.org/2000/svg">
<path d="M1.2813 5.72094V16.8247C1.28133 20.3344 2.34489 23.7617 4.33178 26.6548C6.31867 29.5479 9.13562 31.7711 12.4113 33.0311L13.9294 33.6145C14.9404 34.0033 16.0597 34.0033 17.0707 33.6145L18.5888 33.0311C21.8645 31.7711 24.6814 29.5479 26.6683 26.6548C28.6552 23.7617 29.7188 20.3344 29.7188 16.8247V5.72094C29.7216 5.3031 29.6036 4.89335 29.379 4.54098C29.1545 4.18861 28.8329 3.90862 28.453 3.73469C24.3694 1.9523 19.9555 1.05232 15.5 1.09365C11.0446 1.05232 6.6307 1.9523 2.54713 3.73469C2.1672 3.90862 1.84562 4.18861 1.62105 4.54098C1.39648 4.89335 1.2785 5.3031 1.2813 5.72094V5.72094Z" stroke="#FF6B00" stroke-width="1.75" stroke-linecap="round" stroke-linejoin="round"/>
<path d="M23.0833 16.4063C22.8737 17.8585 22.2512 19.22 21.2899 20.3285C20.3286 21.4371 19.0689 22.246 17.661 22.6591C16.253 23.0722 14.756 23.072 13.3481 22.6585C11.9403 22.245 10.6809 21.4356 9.71987 20.3268C8.75888 19.218 8.13676 17.8563 7.92757 16.404C7.71839 14.9517 7.93094 13.4698 8.53994 12.1349C9.14893 10.7999 10.1287 9.66802 11.3626 8.87402C12.5966 8.08002 14.0327 7.65733 15.5 7.65625" stroke="#FF6B00" stroke-width="1.75" stroke-linecap="round" stroke-linejoin="round"/>
<path d="M23.1564 9.56958L16.1768 16.5492C15.9972 16.7283 15.7539 16.829 15.5002 16.829C15.2464 16.829 15.0031 16.7283 14.8235 16.5492L12.636 14.3544" stroke="#FF6B00" stroke-width="1.75" stroke-linecap="round" stroke-linejoin="round"/>
</svg>
